<svg height="512pt" viewBox="-40 0 512 512" width="512pt" xmlns="http://www.w3.org/2000/svg"><path d="m405 154.292969h-379c-10.21875 0-18.5-8.285157-18.5-18.5v-71.292969c0-10.21875 8.28125-18.5 18.5-18.5h379c10.21875 0 18.5 8.28125 18.5 18.5v71.292969c0 10.214843-8.28125 18.5-18.5 18.5zm0 0" fill="#ad7b64"/><path d="m405 46h-40.5c10.21875 0 18.5 8.28125 18.5 18.5v71.292969c0 10.214843-8.28125 18.5-18.5 18.5h40.5c10.21875 0 18.5-8.285157 18.5-18.5v-71.292969c0-10.21875-8.28125-18.5-18.5-18.5zm0 0" fill="#865b47"/><path d="m405 310.144531h-379c-10.21875 0-18.5-8.28125-18.5-18.5v-71.289062c0-10.21875 8.28125-18.5 18.5-18.5h379c10.21875 0 18.5 8.28125 18.5 18.5v71.289062c0 10.21875-8.28125 18.5-18.5 18.5zm0 0" fill="#ad7b64"/><path d="m405 201.855469h-40.5c10.21875 0 18.5 8.28125 18.5 18.5v71.289062c0 10.21875-8.28125 18.5-18.5 18.5h40.5c10.21875 0 18.5-8.28125 18.5-18.5v-71.289062c0-10.21875-8.28125-18.5-18.5-18.5zm0 0" fill="#865b47"/><path d="m405 466h-379c-10.21875 0-18.5-8.28125-18.5-18.5v-71.292969c0-10.214843 8.28125-18.5 18.5-18.5h379c10.21875 0 18.5 8.285157 18.5 18.5v71.292969c0 10.21875-8.28125 18.5-18.5 18.5zm0 0" fill="#ad7b64"/><path d="m405 357.707031h-40.5c10.21875 0 18.5 8.285157 18.5 18.5v71.292969c0 10.21875-8.28125 18.5-18.5 18.5h40.5c10.21875 0 18.5-8.28125 18.5-18.5v-71.292969c0-10.214843-8.28125-18.5-18.5-18.5zm0 0" fill="#865b47"/><path d="m107.800781 504.5h-16.550781c-7.042969 0-12.75-5.707031-12.75-12.75v-471.5c0-7.042969 5.707031-12.75 12.75-12.75h16.550781c7.042969 0 12.75 5.707031 12.75 12.75v471.5c0 7.042969-5.707031 12.75-12.75 12.75zm0 0" fill="#828282"/><path d="m107.800781 7.5h-16.550781c-.765625 0-1.511719.078125-2.238281.207031 5.972656 1.058594 10.515625 6.265625 10.515625 12.542969v471.5c0 6.277344-4.542969 11.484375-10.515625 12.542969.730469.128906 1.472656.207031 2.238281.207031h16.550781c7.042969 0 12.75-5.707031 12.75-12.75v-471.5c0-7.042969-5.707031-12.75-12.75-12.75zm0 0" fill="#5a5a5a"/><path d="m353.75 504.5h-16.550781c-7.042969 0-12.75-5.707031-12.75-12.75v-471.5c0-7.042969 5.707031-12.75 12.75-12.75h16.550781c7.042969 0 12.75 5.707031 12.75 12.75v471.5c0 7.042969-5.707031 12.75-12.75 12.75zm0 0" fill="#828282"/><path d="m353.75 7.5h-16.550781c-.765625 0-1.511719.078125-2.238281.207031 5.972656 1.058594 10.515624 6.265625 10.515624 12.542969v471.5c0 6.277344-4.542968 11.484375-10.515624 12.542969.730468.128906 1.472656.207031 2.238281.207031h16.550781c7.042969 0 12.75-5.707031 12.75-12.75v-471.5c0-7.042969-5.707031-12.75-12.75-12.75zm0 0" fill="#5a5a5a"/><path d="m405 161.792969c14.335938 0 26-11.664063 26-26v-71.292969c0-14.335938-11.664062-26-26-26h-31v-18.25c0-11.164062-9.085938-20.25-20.25-20.25h-16.550781c-11.167969 0-20.25 9.085938-20.25 20.25v18.25h-47.449219c-4.140625 0-7.5 3.359375-7.5 7.5s3.359375 7.5 7.5 7.5h47.449219v93.292969h-188.898438v-93.292969h113.449219c4.140625 0 7.5-3.359375 7.5-7.5s-3.359375-7.5-7.5-7.5h-113.449219v-18.25c0-11.164062-9.082031-20.25-20.25-20.25h-16.550781c-11.164062 0-20.25 9.085938-20.25 20.25v18.25h-45c-14.335938 0-26 11.664062-26 26v71.292969c0 14.335937 11.664062 26 26 26h45v32.5625h-45c-14.335938 0-26 11.664062-26 26v71.289062c0 14.335938 11.664062 26 26 26h45v32.5625h-45c-14.335938 0-26 11.664063-26 26v17.792969c0 4.140625 3.359375 7.5 7.5 7.5s7.5-3.359375 7.5-7.5v-17.792969c0-6.0625 4.933594-11 11-11h45v93.292969h-45c-6.066406 0-11-4.933594-11-11v-25.5c0-4.140625-3.359375-7.5-7.5-7.5s-7.5 3.359375-7.5 7.5v25.5c0 14.335938 11.664062 26 26 26h45v18.25c0 11.164062 9.085938 20.25 20.25 20.25h16.550781c11.167969 0 20.25-9.085938 20.25-20.25v-18.25h188.898438v18.25c0 11.164062 9.082031 20.25 20.25 20.25h16.550781c11.164062 0 20.25-9.085938 20.25-20.25v-18.25h31c14.335938 0 26-11.664062 26-26v-71.292969c0-14.335937-11.664062-26-26-26h-31v-32.5625h31c14.335938 0 26-11.664062 26-26v-71.289062c0-14.335938-11.664062-26-26-26h-31v-32.5625zm0-108.292969c6.066406 0 11 4.933594 11 11v71.292969c0 6.0625-4.933594 11-11 11h-31v-93.292969zm-88.050781 249.144531h-188.898438v-93.289062h188.898438zm-188.898438 15h188.898438v32.5625h-188.898438zm188.898438-155.851562v32.5625h-188.898438v-32.5625zm-290.949219-15c-6.066406 0-11-4.9375-11-11v-71.292969c0-6.066406 4.933594-11 11-11h45v93.292969zm0 155.851562c-6.066406 0-11-4.933593-11-11v-71.289062c0-6.066407 4.933594-11 11-11h45v93.289062zm87.050781 189.105469c0 2.894531-2.355469 5.25-5.25 5.25h-16.550781c-2.894531 0-5.25-2.355469-5.25-5.25v-471.5c0-2.894531 2.355469-5.25 5.25-5.25h16.550781c2.894531 0 5.25 2.355469 5.25 5.25zm15-33.25v-93.292969h188.898438v93.292969zm230.949219 33.25c0 2.894531-2.355469 5.25-5.25 5.25h-16.550781c-2.894531 0-5.25-2.355469-5.25-5.25v-471.5c0-2.894531 2.355469-5.25 5.25-5.25h16.550781c2.894531 0 5.25 2.355469 5.25 5.25zm46-126.542969c6.066406 0 11 4.9375 11 11v71.292969c0 6.066406-4.933594 11-11 11h-31v-93.292969zm0-155.851562c6.066406 0 11 4.933593 11 11v71.289062c0 6.066407-4.933594 11-11 11h-31v-93.289062zm0 0"/><path d="m390.917969 115.886719c4.140625 0 7.5-3.359375 7.5-7.5v-16.480469c0-4.140625-3.359375-7.5-7.5-7.5-4.144531 0-7.5 3.359375-7.5 7.5v16.480469c0 4.140625 3.355469 7.5 7.5 7.5zm0 0"/><path d="m390.917969 271.738281c4.140625 0 7.5-3.355469 7.5-7.5v-16.476562c0-4.144531-3.359375-7.5-7.5-7.5-4.144531 0-7.5 3.355469-7.5 7.5v16.476562c0 4.144531 3.355469 7.5 7.5 7.5zm0 0"/><path d="m390.917969 427.59375c4.140625 0 7.5-3.359375 7.5-7.5v-16.480469c0-4.140625-3.359375-7.5-7.5-7.5-4.144531 0-7.5 3.359375-7.5 7.5v16.480469c0 4.140625 3.355469 7.5 7.5 7.5zm0 0"/><path d="m40.082031 84.40625c-4.140625 0-7.5 3.359375-7.5 7.5v16.480469c0 4.140625 3.359375 7.5 7.5 7.5 4.144531 0 7.5-3.359375 7.5-7.5v-16.480469c0-4.140625-3.355469-7.5-7.5-7.5zm0 0"/><path d="m40.082031 240.261719c-4.140625 0-7.5 3.355469-7.5 7.5v16.476562c0 4.144531 3.359375 7.5 7.5 7.5 4.144531 0 7.5-3.355469 7.5-7.5v-16.476562c0-4.144531-3.355469-7.5-7.5-7.5zm0 0"/><path d="m47.582031 420.09375v-16.480469c0-4.140625-3.355469-7.5-7.5-7.5-4.140625 0-7.5 3.359375-7.5 7.5v16.480469c0 4.140625 3.359375 7.5 7.5 7.5 4.144531 0 7.5-3.359375 7.5-7.5zm0 0"/></svg>