<?xml version="1.0" encoding="UTF-8"?>
<svg viewBox="0 0 2391.0571 570" xmlns="http://www.w3.org/2000/svg">
 <path transform="matrix(.39286 0 0 .39286 5.0249 10.409)" d="m200.75 5-49.438 1.3125v56.719h-130.34v60.969h135.69l2.5625 21.375c6.4829 88.748 5.6517 179.3 0 275.5l-2.5 21.875h-135.75v60.969h130.34v58.844l49.438 2.4375 49.438-2.4375v-58.844h123.56v58.844l49.406 2.4375 49.438-2.4375v-58.844h123.56v58.844l49.438 2.4375 49.406-2.4375v-58.844h123.56v58.844l49.438 2.4375 49.438-2.4375v-58.844h123.56v58.844l49.406 2.4375 49.438-2.4375v-58.844h123.56v58.844l49.438 2.4375 49.406-2.4375v-58.844h123.56v58.844l49.438 2.4375 49.438-2.4375v-58.844h123.56v58.844l49.406 2.4375 49.438-2.4375v-58.844h123.56v58.844l49.438 2.4375 49.406-2.4375v-58.844h123.56v58.844l49.438 2.4375 49.438-2.4375v-58.844h118.16v-60.969h-123.56l-2.5-21.875c-5.6516-96.199-6.4828-186.75 0-275.5l2.5626-21.375h123.5v-60.969h-118.16v-56.719l-49.438-1.3125-49.438 1.3125v56.719h-123.56v-56.719l-49.406-1.3125-49.438 1.3125v56.719h-123.56v-56.719l-49.438-1.3125-49.406 1.3125v56.719h-123.56v-56.719l-49.438-1.3125-49.438 1.3125v56.719h-123.56v-56.719l-49.406-1.3125-49.438 1.3125v56.719h-123.56v-56.719l-49.438-1.3125-49.406 1.3125v56.719h-123.56v-56.719l-49.438-1.3125-49.438 1.3125v56.719h-123.56v-56.719l-49.406-1.3125-49.438 1.3125v56.719h-123.56v-56.719l-49.438-1.3125-49.406 1.3125v56.719h-123.56v-56.719l-49.438-1.3125zm44.094 119h134.25l2.5312 21.375c6.4829 88.748 5.6517 179.3 0 275.5l-2.5 21.875h-134.34l-2.5-21.875c-5.6518-96.199-6.4829-186.75 0-275.5l2.5625-21.375zm222.41 0h134.25l2.5625 21.375c6.4829 88.748 5.6517 179.3 0 275.5l-2.5 21.875h-134.38l-2.5-21.875c-5.6518-96.199-6.4829-186.75 0-275.5l2.5625-21.375zm222.41 0h134.25l2.5625 21.375c6.4829 88.748 5.6517 179.3 0 275.5l-2.5 21.875h-134.34l-2.5-21.875c-5.6518-96.199-6.4829-186.75 0-275.5l2.5312-21.375zm222.44 0h134.25l2.5312 21.375c6.4829 88.748 5.6517 179.3 0 275.5l-2.5 21.875h-134.34l-2.5-21.875c-5.6517-96.199-6.4829-186.75 0-275.5l2.5625-21.375zm222.41 0h134.25l2.5625 21.375c6.4829 88.748 5.6517 179.3 0 275.5l-2.5 21.875h-134.38l-2.5-21.875c-5.6518-96.199-6.4829-186.75 0-275.5l2.5625-21.375zm222.41 0h134.25l2.5626 21.375c6.4828 88.748 5.6517 179.3 0 275.5l-2.5 21.875h-134.34l-2.5-21.875c-5.6517-96.199-6.4829-186.75 0-275.5l2.5312-21.375zm222.44 0h134.25l2.5312 21.375c6.4829 88.748 5.6517 179.3 0 275.5l-2.5 21.875h-134.34l-2.5-21.875c-5.6517-96.199-6.4829-186.75 0-275.5l2.5626-21.375zm222.41 0h134.25l2.5625 21.375c6.483 88.748 5.6518 179.3 0 275.5l-2.5 21.875h-134.38l-2.5-21.875c-5.6517-96.199-6.4829-186.75 0-275.5l2.5625-21.375zm222.41 0h134.25l2.5626 21.375c6.4829 88.748 5.6517 179.3 0 275.5l-2.5 21.875h-134.34l-2.5-21.875c-5.6518-96.199-6.483-186.75 0-275.5l2.5312-21.375z"/>
</svg>
